<svg id="Layer_1" data-name="Layer 1" xmlns="http://www.w3.org/2000/svg" viewBox="0 0 595.28 841.89"><path d="M257.9,453.33l21.88,7.37C326.12,348.56,448.3,326.82,525,403.22l-29.34-6.85c14.7,27.55,33.64,54.59,43.9,84.6,10.75,31.46.09,62.52-20.41,95-12.14-111.16-31-138.73-108.66-150.41,48.77,19.07,80.55,42.41,86,98.19-16.53-8.87-27.66-18-40.18-20.72-14.75-3.18-30.72-.75-56.94-.75,41.58,22.36,66.85,45.53,57.82,85.58-4.86,21.5-12.7,44.95-46.87,43.13,8.66-35.9,6.63-67.22-42.28-76.79,18.92,20.61,44.39,35.09,22.12,66.7-11.68-32.81-32.16-36.74-63-28.24-11.65,3.21-28.77-13.84-43.55-21.36-2.74-1.4-6.2-1.4-9.32-2L270.58,579l84.85,34.57c-2.44,3.59-8,11.81-16.94,25l-22.63,4.06c.17,3.57.35,7.14.52,10.71L285.22,643c3.58,63.71,36.93,113,66.08,163.52,3.42,5.93,18.77,4.94,28.55,7.27,13.46,3.22,26.9,6.55,40.34,9.84q-1.11,5-2.23,10.09H294.18l43.4-29.09L231.25,661.83,218,666.74c3.72,28.12,7.66,56.2,10.93,84.37.53,4.59-1.65,9.6-3,14.3-7,24.22-17,48.94,26.17,68.59H126.9l-3-9.36c13.53-3.34,27.54-10.77,40.48-9.23,35.26,4.18,43.59-12.72,42.87-43.51-1.43-61.51-32.79-111.79-59.06-164-4.82-9.59-11.89-18-17.73-27.13-21.11-32.81-49.44-65.31-1.58-100.59l37.85,22.4c3.79-15.45,6.49-26.5,9.86-40.25L203,469.52Z"/><path d="M257.9,453.33,203,469.52l-27-28.2c-7.34,15.7-12.59,27-19.18,41.05L123.18,454,100.7,490.11c-22.15-38-14.5-65.65,34.29-131.5l18.68-9.21,25.18-13.64c-13.72-31.93-7.25-41.85,24.27-40.3,14.69.72,29.56-2.27,49.12-4l-19.89-28.62,33.46,10.62c11.68-19.12,22.79-37.28,33.89-55.44l12.61,6.82L299.44,255.4l57.27-25.93L339,260.69l57.4-2.58c.69,2.67,1.39,5.33,2.08,8L361.7,290c.33,1.09.67,2.17,1,3.26L438,271.89c-47.95,69.52-60.6,71.6-129.64,27.7C291.35,351.33,274.63,402.33,257.9,453.33Z"/><path d="M153.67,349.4,135,358.61,78.61,399.44c-1.51-19.46-3.2-41.34-5.55-71.7l-18.73,48-11.11-.62c1.49-25.57,3-51.13,4.42-75.47l-16.86,8.3c12.73-52.53,50.59-69,95.83-80.79C65.45,177,39.33,113.61,50.61,25.66l92.55,18.12c-28.46,49.82-33.7,92.64-12.44,135.5,4.6,9.27,17.5,14.26,26.13,21.75,14.23,12.35,31.14,23.08,41.3,38.26,11.94,17.83-7,46.91-26.54,48.92-17.34,1.78-34.27,7.58-45.7,10.27C117.55,335.2,164.75,319.76,153.67,349.4Z"/></svg>